<svg width="18" height="19" viewBox="0 0 18 19" fill="none" xmlns="http://www.w3.org/2000/svg">
<path fill-rule="evenodd" clip-rule="evenodd" d="M7.2 0.5C3.22355 0.5 0 3.72355 0 7.7C0 11.6764 3.22355 14.9 7.2 14.9C8.86384 14.9 10.3959 14.3356 11.6151 13.3879L16.4636 18.2364C16.8151 18.5879 17.3849 18.5879 17.7364 18.2364C18.0879 17.8849 18.0879 17.3151 17.7364 16.9636L12.8879 12.1151C13.8356 10.8959 14.4 9.36384 14.4 7.7C14.4 3.72355 11.1764 0.5 7.2 0.5ZM1.8 7.7C1.8 4.71766 4.21766 2.3 7.2 2.3C10.1823 2.3 12.6 4.71766 12.6 7.7C12.6 10.6823 10.1823 13.1 7.2 13.1C4.21766 13.1 1.8 10.6823 1.8 7.7Z" fill="black"/>
</svg>
